<?xml version="1.0" encoding="utf-8"?>
<!-- Generator: Adobe Illustrator 25.0.0, SVG Export Plug-In . SVG Version: 6.00 Build 0)  -->
<svg version="1.1" id="Layer_1" xmlns="http://www.w3.org/2000/svg" xmlns:xlink="http://www.w3.org/1999/xlink" x="0px" y="0px"
	 viewBox="0 0 1080 4986.2" style="enable-background:new 0 0 1080 4986.2;" xml:space="preserve">
<style type="text/css">
	.st0{fill:none;stroke:#FFFFFF;stroke-miterlimit:10;}
	.st1{fill:none;}
</style>
<g>
	<g>
		<polygon class="st0" points="74.9,4986.2 74.9,0 540.8,0 1006.8,0 1006.8,4986.2 		"/>
		<path class="st1" d="M1001.5,1265.4"/>
	</g>
	<circle class="st0" cx="540.8" cy="1861.5" r="465.9"/>
	<circle class="st0" cx="540.8" cy="4175" r="465.9"/>
	<line class="st0" x1="539.2" y1="0" x2="539.2" y2="4986"/>
	<path class="st0" d="M1005.1,359.3H73.2v225.6c0,257.3,208.6,465.9,465.9,465.9c257.3,0,465.9-208.6,465.9-465.9L1005.1,359.3z"/>
	<path class="st0" d="M73.2,3364h931.9v-225.6c0-257.3-208.6-465.9-465.9-465.9c-257.3,0-465.9,208.6-465.9,465.9L73.2,3364z"/>
	<line class="st0" x1="74.9" y1="1395.5" x2="1006.8" y2="1395.5"/>
	<line class="st0" x1="74.9" y1="2327.4" x2="1006.8" y2="2327.4"/>
	<line class="st0" x1="74.9" y1="4175" x2="1006.8" y2="4175"/>
</g>
</svg>
