<?xml version="1.0" encoding="UTF-8" standalone="no"?>
<svg xmlns:inkscape="http://www.inkscape.org/namespaces/inkscape" xmlns:sodipodi="http://sodipodi.sourceforge.net/DTD/sodipodi-0.dtd" xmlns="http://www.w3.org/2000/svg" xmlns:svg="http://www.w3.org/2000/svg" width="289.24826" height="81.332672" version="1.1" id="svg3875" sodipodi:docname="mino-digital (1).svg" inkscape:export-filename="mino-digital-logo-landscape-whtbg.svg" inkscape:export-xdpi="265.51587" inkscape:export-ydpi="265.51587">
  <defs id="defs3879"></defs>
  <path fill="#faf0ca" d="m 42.605268,81.30534 c -1.63,0.003 -3.311,0.084 -4.935,-0.048 -19.492,-1.582 -35.7299999,-17.158 -37.44199987,-36.771 -0.186,-2.137 -0.308,-4.232 -0.167,-6.385 0.622,-9.494 4.47799997,-18.594 11.07299987,-25.484 7.175,-7.4960002 17.51,-12.36400016 27.928,-12.59900016 4.71,-0.111 8.552,0.265 13.05,1.59099996 5.794,1.709 11.008,4.355 15.516,8.4650002 2.991,2.727 5.702,5.751 7.857,9.187 6.433,10.256 7.711,23.102 3.773,34.499 l -1.196,2.983 c -1.314,3.055 -2.986,6.021 -5.019,8.658 -7.199,9.341 -18.652,15.377 -30.438,15.904 z m -2.574,-73.1370002 C 23.008268,8.1293398 8.2062681,22.97034 8.1782681,40.01534 l 0.019,2.204 c 0.814,16.544 14.2889999,29.866 30.7779999,30.866 l 2.53,0.025 c 16.278,-0.376 29.605,-12.94 31.577,-28.868 l 0.219,-2.067 c 0.53,-9.253 -3.439,-18.865 -10.158,-25.189 -6.386,-6.011 -14.436,-8.9260002 -23.112,-8.8180002 z" id="path3869"></path>
  <path fill="#faf0ca" d="m 18.296268,51.88034 -0.001,-24.437 c 0.216,-0.05 0.482,-0.019 0.707,-0.019 l 7.612,0.027 c 0.066,0.427 0.029,0.9 0.031,1.334 l 0.006,11.637 c 0.138,-0.194 0.536,-0.502 0.791,-0.853 l 6.448,-8.952 c 2.283,-3.436 3.137,-3.189 6.812,-3.19 3.938,-0.001 4.461,-0.369 7.049,3.117 l 6.619,9.06 c 0.153,0.192 0.282,0.208 0.378,0.469 l 0.013,-12.583 c 0.222,-0.122 0.777,-0.06 1.048,-0.061 l 2.944,-0.004 4.426,-0.007 c 0.089,0.437 0.02,0.999 0.02,1.454 l 0.09,22.556 c 10e-4,0.139 0.029,0.352 -0.028,0.477 l -7.199,10e-4 c -0.734,-10e-4 -1.56,0.067 -2.259,-0.188 l -0.342,-0.123 c -1.805,-0.703 -2.843,-2.603 -3.907,-4.102 l -3.29,-4.635 c -0.2,-0.281 -0.646,-0.698 -0.766,-0.976 l -0.002,8.782 c 0.003,0.385 -0.022,0.803 0.046,1.183 l -8.713,0.042 0.014,-9.602 c 0,-0.354 0.033,-0.738 -0.011,-1.088 l -5.631,7.715 c -1.472,2.217 -2.268,3.028 -4.881,3.001 z" id="path3871"></path>
  <path fill="#faf0ca" d="m 92.747268,54.94334 0.662,-35.711 h 4.894 l 6.304002,28.966 6.349,-28.966 h 4.85 l 0.661,35.711 h -4.012 l -0.397,-25.924 -6.04,25.924 h -2.822 l -5.996002,-25.924 -0.396,25.924 z m 29.451002,0 v -35.711 h 4.894 v 35.711 z m 10.67,0 v -35.711 h 3.395 l 10.14,23.719 v -23.719 h 4.144 v 35.711 h -3.174 l -10.273,-24.381 v 24.381 z m 32.405,0.397 c -2.411,0 -4.336,-0.47 -5.776,-1.411 -1.44,-0.941 -2.469,-2.285 -3.086,-4.034 -0.617,-1.749 -0.926,-3.799 -0.926,-6.15 v -13.535 c 0,-2.352 0.316,-4.373 0.948,-6.063 0.632,-1.69 1.661,-2.983 3.086,-3.879 1.425,-0.897 3.343,-1.345 5.754,-1.345 2.41,0 4.32,0.456 5.731,1.367 1.411,0.911 2.432,2.204 3.064,3.879 0.632,1.676 0.948,3.689 0.948,6.041 v 13.579 c 0,2.322 -0.316,4.35 -0.948,6.084 -0.632,1.734 -1.653,3.079 -3.064,4.034 -1.411,0.955 -3.321,1.433 -5.731,1.433 z m 0,-3.924 c 1.322,0 2.322,-0.272 2.998,-0.816 0.675,-0.543 1.131,-1.308 1.366,-2.292 0.235,-0.985 0.353,-2.139 0.353,-3.461 v -15.651 c 0,-1.323 -0.118,-2.462 -0.353,-3.417 -0.235,-0.956 -0.691,-1.69 -1.366,-2.205 -0.676,-0.514 -1.676,-0.771 -2.998,-0.771 -1.323,0 -2.33,0.257 -3.021,0.771 -0.69,0.515 -1.153,1.249 -1.388,2.205 -0.235,0.955 -0.353,2.094 -0.353,3.417 v 15.651 c 0,1.322 0.118,2.476 0.353,3.461 0.235,0.984 0.698,1.749 1.388,2.292 0.691,0.544 1.698,0.816 3.021,0.816 z m 24.733,3.527 v -35.711 h 7.76 c 2.645,0 4.739,0.404 6.282,1.212 1.543,0.808 2.645,2.021 3.307,3.637 0.661,1.617 0.992,3.63 0.992,6.04 v 13.139 c 0,2.527 -0.331,4.658 -0.992,6.392 -0.662,1.735 -1.734,3.05 -3.219,3.946 -1.484,0.897 -3.475,1.345 -5.974,1.345 z m 4.982,-3.571 h 2.822 c 1.822,0 3.115,-0.353 3.879,-1.058 0.764,-0.706 1.227,-1.734 1.389,-3.086 0.162,-1.352 0.243,-2.984 0.243,-4.894 v -11.595 c 0,-1.852 -0.118,-3.351 -0.353,-4.497 -0.235,-1.147 -0.75,-1.984 -1.543,-2.513 -0.794,-0.529 -2.043,-0.794 -3.748,-0.794 h -2.689 z m 18.164,3.571 v -25.483 h 4.718 v 25.483 z m 0,-29.275 v -4.937 h 4.718 v 4.937 z m 16.533,37.255 c -1.557,0 -2.961,-0.169 -4.21,-0.507 -1.249,-0.338 -2.234,-0.86 -2.954,-1.565 -0.72,-0.706 -1.08,-1.631 -1.08,-2.778 0,-0.881 0.206,-1.653 0.617,-2.314 0.411,-0.662 0.941,-1.227 1.587,-1.698 0.647,-0.47 1.323,-0.837 2.028,-1.102 l 2.205,0.309 c -0.382,0.352 -0.75,0.712 -1.102,1.08 -0.353,0.367 -0.647,0.749 -0.882,1.146 -0.235,0.397 -0.353,0.83 -0.353,1.301 0,0.764 0.331,1.337 0.992,1.719 0.661,0.382 1.844,0.573 3.549,0.573 1.676,0 2.917,-0.198 3.726,-0.595 0.808,-0.397 1.212,-1.021 1.212,-1.874 0,-0.529 -0.103,-0.962 -0.309,-1.3 -0.205,-0.338 -0.558,-0.61 -1.058,-0.816 -0.499,-0.206 -1.22,-0.353 -2.16,-0.441 l -5.555,-0.705 c -1.146,-0.147 -1.999,-0.515 -2.557,-1.102 -0.559,-0.588 -0.838,-1.235 -0.838,-1.94 0,-1.058 0.301,-1.955 0.904,-2.69 0.603,-0.734 1.418,-1.557 2.447,-2.469 l 1.587,1.235 c -0.176,0.235 -0.397,0.566 -0.661,0.992 -0.265,0.426 -0.397,0.845 -0.397,1.256 0,0.324 0.169,0.588 0.507,0.794 0.338,0.206 0.874,0.338 1.609,0.397 l 4.277,0.397 c 1.998,0.176 3.483,0.779 4.453,1.807 0.969,1.029 1.454,2.499 1.454,4.409 0,1.411 -0.33,2.601 -0.992,3.571 -0.661,0.97 -1.653,1.698 -2.975,2.183 -1.323,0.485 -3.013,0.727 -5.071,0.727 z m 0.177,-15.828 c -1.734,0 -3.145,-0.382 -4.233,-1.146 -1.087,-0.764 -1.888,-1.822 -2.403,-3.174 -0.514,-1.352 -0.771,-2.895 -0.771,-4.63 0,-1.969 0.279,-3.622 0.838,-4.959 0.558,-1.338 1.388,-2.352 2.491,-3.043 1.102,-0.69 2.461,-1.036 4.078,-1.036 1.675,0 3.042,0.419 4.1,1.257 1.058,0.838 1.837,1.947 2.337,3.329 0.499,1.381 0.749,2.909 0.749,4.585 0,1.734 -0.228,3.27 -0.683,4.607 -0.456,1.337 -1.205,2.373 -2.249,3.108 -1.043,0.735 -2.461,1.102 -4.254,1.102 z m 0,-3.394 c 0.646,0 1.161,-0.125 1.543,-0.375 0.382,-0.25 0.669,-0.61 0.86,-1.08 0.19,-0.471 0.323,-1.051 0.396,-1.742 0.074,-0.691 0.111,-1.477 0.111,-2.359 0,-0.881 -0.03,-1.675 -0.089,-2.38 -0.058,-0.706 -0.191,-1.301 -0.396,-1.786 -0.206,-0.485 -0.5,-0.86 -0.882,-1.124 -0.382,-0.265 -0.882,-0.397 -1.499,-0.397 -0.647,0 -1.169,0.125 -1.565,0.375 -0.397,0.25 -0.706,0.617 -0.926,1.102 -0.221,0.485 -0.367,1.08 -0.441,1.786 -0.074,0.705 -0.11,1.513 -0.11,2.424 0,0.794 0.036,1.529 0.11,2.205 0.074,0.676 0.213,1.264 0.419,1.763 0.206,0.5 0.507,0.89 0.904,1.169 0.396,0.279 0.918,0.419 1.565,0.419 z m 6.304,-9.964 -1.102,-1.764 c 0.235,-0.411 0.764,-0.926 1.587,-1.543 0.823,-0.617 1.705,-1.132 2.646,-1.543 l 1.234,3.086 c -0.411,0.088 -0.962,0.25 -1.653,0.485 -0.691,0.235 -1.315,0.478 -1.874,0.728 -0.559,0.249 -0.838,0.433 -0.838,0.551 z m 6.525,21.206 v -25.483 h 4.718 v 25.483 z m 0,-29.275 v -4.937 h 4.718 v 4.937 z m 16.578,29.628 c -1.323,0 -2.389,-0.25 -3.197,-0.75 -0.808,-0.499 -1.396,-1.205 -1.763,-2.116 -0.368,-0.911 -0.551,-1.984 -0.551,-3.218 v -16.622 h -2.69 v -3.13 h 2.69 v -7.451 h 4.717 v 7.451 h 4.1 v 3.13 h -4.1 v 16.313 c 0,0.999 0.162,1.712 0.485,2.138 0.323,0.426 0.94,0.64 1.852,0.64 0.235,0 0.507,-0.015 0.815,-0.045 0.309,-0.029 0.61,-0.058 0.904,-0.088 v 3.483 c -0.588,0.088 -1.132,0.155 -1.631,0.199 -0.5,0.044 -1.044,0.066 -1.631,0.066 z m 10.625,0 c -1,0 -1.881,-0.287 -2.646,-0.86 -0.764,-0.573 -1.366,-1.308 -1.807,-2.204 -0.441,-0.897 -0.661,-1.845 -0.661,-2.844 0,-1.587 0.264,-2.925 0.793,-4.012 0.529,-1.088 1.257,-2.006 2.183,-2.756 0.925,-0.749 1.998,-1.403 3.218,-1.962 1.22,-0.558 2.505,-1.102 3.858,-1.631 v -1.807 c 0,-1.029 -0.059,-1.882 -0.177,-2.558 -0.117,-0.676 -0.36,-1.183 -0.727,-1.521 -0.367,-0.338 -0.919,-0.507 -1.653,-0.507 -0.647,0 -1.169,0.147 -1.566,0.441 -0.396,0.294 -0.683,0.713 -0.859,1.257 -0.177,0.544 -0.265,1.183 -0.265,1.918 v 1.278 l -4.673,-0.176 c 0.058,-2.822 0.705,-4.901 1.94,-6.239 1.234,-1.337 3.145,-2.006 5.731,-2.006 2.528,0 4.321,0.691 5.379,2.073 1.058,1.381 1.587,3.38 1.587,5.996 v 11.639 c 0,0.793 0.022,1.558 0.066,2.292 0.044,0.735 0.103,1.419 0.177,2.05 0.073,0.632 0.139,1.228 0.198,1.786 h -4.321 c -0.088,-0.47 -0.198,-1.065 -0.33,-1.786 -0.133,-0.72 -0.228,-1.374 -0.287,-1.961 -0.294,0.999 -0.86,1.932 -1.697,2.799 -0.838,0.867 -1.992,1.301 -3.461,1.301 z m 1.851,-4.056 c 0.471,0 0.912,-0.133 1.323,-0.397 0.411,-0.265 0.779,-0.566 1.102,-0.904 0.323,-0.338 0.544,-0.61 0.662,-0.816 v -7.23 c -0.735,0.411 -1.426,0.823 -2.072,1.234 -0.647,0.412 -1.213,0.845 -1.698,1.301 -0.485,0.456 -0.867,0.97 -1.146,1.543 -0.279,0.573 -0.419,1.227 -0.419,1.962 0,1.029 0.191,1.837 0.573,2.425 0.382,0.588 0.941,0.882 1.675,0.882 z m 12.786,3.703 v -35.711 h 4.717 v 35.711 z" id="path3873"></path>
</svg>
